<?xml version="1.0" encoding="utf-8"?>
<!-- Generator: Adobe Illustrator 16.0.4, SVG Export Plug-In . SVG Version: 6.00 Build 0)  -->
<!DOCTYPE svg PUBLIC "-//W3C//DTD SVG 1.1//EN" "http://www.w3.org/Graphics/SVG/1.1/DTD/svg11.dtd">
<svg version="1.1" id="Layer_1" xmlns="http://www.w3.org/2000/svg" xmlns:xlink="http://www.w3.org/1999/xlink" x="0px" y="0px"
	 width="70px" height="70px" viewBox="0 0 70 70" style="enable-background:new 0 0 70 70;" xml:space="preserve">
<style type="text/css">
<![CDATA[
	.st0{fill-rule:evenodd;clip-rule:evenodd;fill:#FFFFFF;}
]]>
</style>
<g>
	<path class="st0" d="M46.6,2.6c0,0.6-0.1,1.2-0.1,1.8c-0.3,3.3,2,6.2,5.2,6.6c1.6,0.2,3-0.2,4.4-1.1c0.5-0.3,1-0.7,1.5-1
		c6.1,5.3,10,11.9,11.6,19.8c-0.5,0.3-1.1,0.5-1.6,0.8c-1.8,0.9-3,2.2-3.5,4.2c-0.6,2.6,0.7,5.3,3,6.5c0.7,0.4,1.4,0.7,2.1,1.1
		c-0.3,1-0.6,2-0.8,3.1c-0.5,0.6-0.5,1.3-0.7,1.9c-0.3,0.6-0.5,1.3-0.7,2c-1.1,3-2.8,5.6-4.7,8.1c-1.3,1.7-2.9,3.2-4.5,4.6
		c0,0-0.1,0.1-0.1,0.1c-0.7-0.4-1.3-0.9-1.9-1.3c-2.3-1.3-4.5-1.2-6.7,0.3c-1.9,1.3-2.7,3.2-2.5,5.5c0.1,0.6,0.1,1.2,0.1,1.8
		c-7.7,2.5-15.4,2.6-23.2,0c0-0.6,0.1-1.2,0.1-1.8c0.2-2.3-1-4.7-3-5.7c-2.3-1.2-4.5-1.1-6.7,0.3c-0.5,0.3-1,0.7-1.5,1
		c-6.2-5.3-10-11.8-11.6-19.8c0.5-0.2,1.1-0.5,1.6-0.8c1.8-0.8,3-2.2,3.5-4.2c0.6-2.6-0.7-5.3-3-6.5c-0.7-0.4-1.4-0.7-2.1-1
		c1.6-7.9,5.5-14.5,11.6-19.8c0.5,0.3,1,0.7,1.5,1c1.2,0.8,2.5,1.3,4,1.1c2.3-0.2,4-1.3,5-3.3c0.6-1.2,0.7-2.5,0.6-3.9
		c0-0.4-0.1-0.8-0.1-1.2C31.1,0.1,38.8,0,46.6,2.6z M63,26.6c-0.1-0.3-0.2-0.6-0.3-0.9c-0.6-1.9-1.3-3.8-2.4-5.5
		c-1.1-1.7-2.4-3.3-3.8-4.7c-0.1-0.1-0.2-0.2-0.4-0.1c-1.8,0.6-3.7,1-5.6,0.7c-2.8-0.4-5.1-1.7-6.8-4c-1.1-1.5-1.7-3.1-2-4.9
		c0-0.1-0.1-0.3-0.2-0.3C39.6,6.4,37.7,6,35.7,6c-2.5-0.1-4.9,0.3-7.3,0.9c-0.2,0-0.2,0.1-0.2,0.3c-0.3,1.6-0.8,3.1-1.7,4.4
		c-1.9,2.9-4.5,4.3-7.9,4.5c-1.6,0.1-3.1-0.2-4.6-0.8c-0.2-0.1-0.3-0.1-0.5,0.1c-0.2,0.2-0.4,0.5-0.6,0.7c-2.7,3-4.7,6.4-5.9,10.3
		c-0.1,0.2,0,0.3,0.1,0.4c0.8,0.7,1.6,1.4,2.2,2.3c2.5,3.2,2.7,7.2,0.7,10.7c-0.8,1.3-1.8,2.4-2.9,3.4c-0.1,0.1-0.2,0.1-0.1,0.3
		c0.7,2.2,1.5,4.2,2.7,6.2c1.1,1.8,2.4,3.3,3.9,4.8c0.1,0.2,0.2,0.2,0.4,0.1c1.9-0.7,3.9-1,6-0.7c3.1,0.5,5.4,2.1,7,4.9
		c0.7,1.2,1.1,2.6,1.4,4c0,0.2,0.1,0.2,0.3,0.3c0.3,0.1,0.6,0.1,0.9,0.2c2,0.4,4,0.7,6,0.7c2.1-0.1,4.2-0.5,6.2-1
		c0.1,0,0.2-0.2,0.2-0.3c0.3-1.3,0.6-2.5,1.3-3.7c1.8-3.4,4.6-5.1,8.5-5.2c1.6-0.1,3.1,0.3,4.6,0.8c0.2,0.1,0.3,0,0.4-0.1
		c0.3-0.3,0.6-0.6,0.8-0.9c1.4-1.5,2.6-3.1,3.6-4.9c0.9-1.7,1.5-3.5,2-5.3c0.1-0.2,0-0.3-0.1-0.4c-0.9-0.8-1.8-1.7-2.5-2.7
		c-2.2-3.4-2.3-6.9-0.2-10.5c0.7-1.2,1.6-2.2,2.7-3.1C62.9,26.7,63,26.6,63,26.6z"/>
	<path class="st0" d="M29.7,45.4c-1.8,0-3.5,0-5.3,0c0-0.2,0-0.4,0-0.6c0-0.5,0-1.1,0-1.6c0-0.4,0-0.4-0.4-0.4c-1.5,0-2.9,0-4.4,0
		c-0.4,0-0.4,0-0.4,0.4c0,0.4,0,0.8,0,1.2c0,0.3,0,0.6,0,1c-1.8,0-3.5,0-5.2,0c0-0.1,0-0.1,0-0.2c0-0.9,0-1.8,0-2.6
		c0-0.1,0-0.2,0-0.3c1.1-3.4,2.2-6.7,3.3-10.1c0.7-2.3,1.4-4.5,2.2-6.8c0.1-0.3,0.2-0.7,0.3-1.1c1.4,0,2.7,0,4.1,0
		c0.2,0.7,0.4,1.4,0.7,2.1c1.1,3.5,2.3,7,3.4,10.5c0.5,1.6,1,3.1,1.5,4.7c0.2,0.6,0.2,1.1,0.2,1.6C29.7,44,29.7,44.7,29.7,45.4z
		 M21.9,35.2C21.8,35.2,21.8,35.2,21.9,35.2c-0.3,0.8-0.6,1.5-0.9,2.3c0.6,0,1.1,0,1.6,0C22.4,36.7,22.1,36,21.9,35.2z"/>
	<path class="st0" d="M37.6,40.2c0,1.8,0,3.5,0,5.2c-1.8,0-3.5,0-5.2,0c0-7,0-14,0-21c0.1,0,0.1,0,0.2,0c1.7,0,3.5,0,5.2,0
		c3.1,0.1,5.4,1.6,6.9,4.3c2.5,4.8-0.5,10.7-6,11.4C38.3,40.1,38,40.2,37.6,40.2z M37.6,34.9c1-0.1,1.9-0.5,2.3-1.4
		c0.5-1,0.4-2-0.2-2.8c-0.5-0.7-1.2-1-2.1-1C37.6,31.4,37.6,33.1,37.6,34.9z"/>
	<path class="st0" d="M48.2,24.4c1.7,0,3.5,0,5.2,0c0,7,0,14,0,21c-1.7,0-3.5,0-5.2,0C48.2,38.4,48.2,31.4,48.2,24.4z"/>
</g>
</svg>
