<?xml version="1.0" encoding="utf-8"?>
<!-- Generator: Adobe Illustrator 16.0.4, SVG Export Plug-In . SVG Version: 6.00 Build 0)  -->
<!DOCTYPE svg PUBLIC "-//W3C//DTD SVG 1.1//EN" "http://www.w3.org/Graphics/SVG/1.1/DTD/svg11.dtd">
<svg version="1.1" id="Layer_1" xmlns="http://www.w3.org/2000/svg" xmlns:xlink="http://www.w3.org/1999/xlink" x="0px" y="0px"
	 width="70px" height="70px" viewBox="0 0 70 70" style="enable-background:new 0 0 70 70;" xml:space="preserve">
<style type="text/css">
<![CDATA[
	.st0{fill-rule:evenodd;clip-rule:evenodd;fill:#FFFFFF;}
]]>
</style>
<g>
	<path class="st0" d="M3.8,0.5c20.8,0,41.6,0,62.4,0c-0.3,2.7-0.6,5.3-0.9,7.9c-0.6,5.1-1.1,10.3-1.7,15.4
		C63,29.4,62.4,35,61.7,40.6C61.2,45.8,60.6,50.9,60,56c-0.2,2.1-0.5,4.1-0.7,6.2c0,0.5-0.3,0.7-0.8,0.8c-7.2,2.1-14.5,4.1-21.7,6.2
		c-1.4,0.4-2.6,0.4-3.9,0c-7.2-2.1-14.3-4.1-21.5-6.2c-0.5-0.2-0.8-0.4-0.8-1C9.8,54.4,8.9,46.7,8,39c-0.9-8-1.8-16.1-2.7-24.1
		C4.9,10.2,4.3,5.6,3.8,1C3.8,0.9,3.8,0.7,3.8,0.5z M52.3,14.4c-11.6,0-23.1,0-34.7,0c0.2,2.5,0.4,5,0.6,7.5c8.8,0,17.4,0,26.2,0
		c-0.2,2.6-0.4,5-0.6,7.6c-5.9,0-11.6,0-17.4,0c0.1,2.5,0.3,5,0.4,7.5c5.6,0,11.1,0,16.7,0c-0.2,2.7-0.4,5.3-0.5,7.9
		c0,0.5-0.3,0.6-0.7,0.8c-2.2,0.7-4.4,1.5-6.6,2.2c-0.3,0.1-0.8,0.1-1.1,0c-2-0.7-4-1.4-6.1-2c-0.8-0.3-1.2-0.6-1.2-1.5
		c0-1.2-0.1-2.4-0.1-3.5c-2.6,0-5,0-7.5,0c0,0.1-0.1,0.2-0.1,0.3c0.2,3.2,0.3,6.4,0.5,9.6c0,0.2,0.4,0.6,0.6,0.7
		c4.6,1.5,9.2,3,13.9,4.5c0.3,0.1,0.6,0.1,0.8,0c4.7-1.5,9.4-3.1,14.1-4.6c0.2-0.1,0.5-0.4,0.5-0.7c0.3-4.5,0.6-9.1,0.8-13.6
		c0.3-4.9,0.6-9.7,0.9-14.6C52,19.7,52.2,17.1,52.3,14.4z"/>
</g>
</svg>
