<?xml version="1.0" encoding="utf-8"?>
<!-- Generator: Adobe Illustrator 16.0.4, SVG Export Plug-In . SVG Version: 6.00 Build 0)  -->
<!DOCTYPE svg PUBLIC "-//W3C//DTD SVG 1.1//EN" "http://www.w3.org/Graphics/SVG/1.1/DTD/svg11.dtd">
<svg version="1.1" id="Layer_1" xmlns="http://www.w3.org/2000/svg" xmlns:xlink="http://www.w3.org/1999/xlink" x="0px" y="0px"
	 width="70px" height="70px" viewBox="0 0 70 70" style="enable-background:new 0 0 70 70;" xml:space="preserve">
<style type="text/css">
<![CDATA[
	.st0{fill-rule:evenodd;clip-rule:evenodd;fill:#FFFFFF;}
]]>
</style>
<g>
	<path class="st0" d="M4.6,0.6c20.7,0,40.8,0,61.5,0c-0.7,8.3-1.3,16.3-2,24.4c-1,11.3-2.1,22.6-3,33.9c-0.3,3.3-1,5.7-4.9,6
		c-1.3,0.1-2.5,0.5-3.7,1c-11.7,5-23.2,4.4-35,0C10.1,63,10,63.6,9.3,55.6c-1.4-16-3-32.1-4.4-48.1C4.7,5.4,4.7,3.2,4.6,0.6z
		 M51.1,52.1c0.6-7.4,1.3-15,2-23.2c-9.6,0-18.8,0-28.1,0c-0.2-2.8-0.4-5.2-0.6-7.9c10,0,19.6,0,29.6,0c0.1-2.7,0.3-5,0.4-7.3
		c-13,0-25.5,0-38.3,0c0.7,7.8,1.4,15.3,2.1,23.1c9.1,0,17.8,0,26.5,0c0.1,9.8-0.2,10.7-7.6,11.8c-3,0.4-6.6-0.3-9.2-1.7
		c-1.5-0.8-1.6-4.1-2.3-6.2c-2.3,0-4.6,0-7.1,0c0.4,4.1,0.7,8,1.1,11.5C30,57.4,40.3,57.8,51.1,52.1z"/>
</g>
</svg>
