<?xml version="1.0" encoding="utf-8"?>
<!-- Generator: Adobe Illustrator 16.0.4, SVG Export Plug-In . SVG Version: 6.00 Build 0)  -->
<!DOCTYPE svg PUBLIC "-//W3C//DTD SVG 1.1//EN" "http://www.w3.org/Graphics/SVG/1.1/DTD/svg11.dtd">
<svg version="1.1" id="Layer_1" xmlns="http://www.w3.org/2000/svg" xmlns:xlink="http://www.w3.org/1999/xlink" x="0px" y="0px"
	 width="70px" height="70px" viewBox="0 0 70 70" style="enable-background:new 0 0 70 70;" xml:space="preserve">
<style type="text/css">
<![CDATA[
	.st0{fill-rule:evenodd;clip-rule:evenodd;fill:#FFFFFF;}
]]>
</style>
<g>
	<path class="st0" d="M43.3,43.9c0.3,0.4,0.6,0.9,0.9,1.3c1.8,2.5,4.1,4.1,7.2,4.5c1.8,0.2,3.6,0.2,5.3-0.6c2.9-1.3,3.9-4.4,2.1-6.8
		c-0.5-0.7-1.3-1.3-2-1.7c-2.2-1.1-4.4-2.1-6.6-3.1c-2.2-1-4.5-2.1-6.5-3.5c-3.8-2.9-5.5-6.7-5.5-11.5c0-7.2,5.2-11.5,10.9-12.6
		c3-0.6,5.9-0.4,8.8,0.3c4,1,6.6,3.7,8.7,7.1c-0.1,0.1-0.3,0.2-0.4,0.3c-2.2,1.4-4.5,2.9-6.7,4.4c-0.4,0.3-0.6,0.2-0.8-0.2
		c-0.6-1-1.4-2-2.4-2.6c-1.9-1.3-4-1.4-6.1-0.5c-2.8,1.3-3.1,5.2-0.6,7.2c0.8,0.6,1.7,1.2,2.7,1.6c2.7,1.3,5.4,2.4,8,3.7
		c2,1,3.9,2.2,5.5,3.8c2.1,2.1,3.3,4.7,3.6,7.7c0.3,3,0.1,5.9-1.4,8.5c-1.7,3.2-4.4,5.2-7.8,6.2c-6.2,1.9-12.3,1.5-18.1-1.7
		c-2.9-1.6-5-3.9-6.6-6.7c-0.2-0.4-0.2-0.6,0.2-0.8c2.4-1.3,4.7-2.7,7.1-4.1C43,44,43.1,44,43.3,43.9z"/>
	<path class="st0" d="M20.1,10c3.3,0,6.5,0,9.8,0c0,0.2,0,0.3,0,0.5c0,11.7,0.1,23.3-0.1,35c-0.1,6.6-3.8,11.4-10.4,12.7
		c-4.1,0.8-8,0.5-11.8-1.3c-3.1-1.5-5.8-4.3-7.1-7.4c2.6-1.6,5.3-3.2,8-4.8c0.2,0.4,0.4,0.7,0.6,1c0.4,0.6,0.7,1.1,1.1,1.7
		c1.4,1.8,3.2,2.5,5.5,2.3c1.3-0.1,2.4-0.5,3.2-1.5c0.7-0.9,1.1-2.1,1.1-3.2c0-9,0-18.1,0.1-27.1c0-2.4,0-4.7,0-7.1
		C20.1,10.5,20.1,10.3,20.1,10z"/>
</g>
</svg>
