<?xml version="1.0" encoding="utf-8"?>
<!-- Generator: Adobe Illustrator 16.0.4, SVG Export Plug-In . SVG Version: 6.00 Build 0)  -->
<!DOCTYPE svg PUBLIC "-//W3C//DTD SVG 1.1//EN" "http://www.w3.org/Graphics/SVG/1.1/DTD/svg11.dtd">
<svg version="1.1" id="Layer_1" xmlns="http://www.w3.org/2000/svg" xmlns:xlink="http://www.w3.org/1999/xlink" x="0px" y="0px"
	 width="70px" height="70px" viewBox="0 0 70 70" style="enable-background:new 0 0 70 70;" xml:space="preserve">
<style type="text/css">
<![CDATA[
	.st0{fill-rule:evenodd;clip-rule:evenodd;fill:#FFFFFF;}
]]>
</style>
<g>
	<path class="st0" d="M34.6,69.5c-1.5-0.3-2.7-1.2-3.9-1.9c-2.2-1.3-4.5-2.6-6.7-4c-0.2-0.1-0.3-0.4-0.5-0.6
		c0.2-0.1,0.4-0.3,0.6-0.4c1.1-0.5,2.3-1,3.4-1.5c0.5-0.2,0.8-0.2,1.2,0c1.9,1.2,3.9,2.3,5.8,3.5c0.5,0.3,1,0.3,1.5,0
		c8.2-4.7,16.3-9.4,24.5-14.1c0.5-0.3,0.7-0.6,0.7-1.2c0-9.5,0-18.9,0-28.4c0-0.6-0.2-0.9-0.7-1.2C52.4,15,44.2,10.3,36,5.5
		c-0.5-0.3-1-0.3-1.5,0C26.4,10.3,18.2,15,10,19.7c-0.5,0.3-0.7,0.6-0.7,1.2c0,9.5,0,18.9,0,28.4c0,0.6,0.2,0.9,0.7,1.2
		c2.1,1.2,4.3,2.5,6.4,3.7c1.1,0.6,2.3,1,3.7,0.7c1.4-0.3,2.4-1.4,2.5-2.9c0-0.3,0-0.5,0-0.8c0-9.2,0-18.3,0-27.5
		c0-1.2,0.1-1.4,1.3-1.4c0.8,0,1.6,0,2.4,0c0.6,0,0.9,0.3,0.9,0.9c0,0.2,0,0.3,0,0.5c0,9.3,0,18.6,0,28c0,0.8-0.1,1.7-0.3,2.5
		c-0.7,3.4-3.2,5.3-6.6,5.5c-2.4,0.1-4.5-0.5-6.5-1.7c-2.2-1.2-4.3-2.5-6.5-3.7c-1.8-1-2.6-2.7-2.6-4.7c0-9.6,0-19.2,0-28.8
		c0-2.1,1-3.8,2.8-4.8c8.2-4.7,16.4-9.5,24.7-14.2c2-1.1,3.9-1.2,5.9,0c8.2,4.8,16.5,9.5,24.7,14.3c1.9,1.1,2.8,2.7,2.8,4.9
		c0,9.6,0,19.1,0,28.7c0,2.1-0.9,3.8-2.8,4.8c-8.3,4.8-16.7,9.6-25,14.4c-0.6,0.4-1.4,0.5-2,0.8C35.5,69.5,35.1,69.5,34.6,69.5z"/>
	<path class="st0" d="M43.9,51.8c-3,0-5.9-0.3-8.7-1.4c-3.9-1.6-6-4.5-6.2-8.7c0-0.8,0.3-1.2,1.1-1.2c1.1,0,2.2,0,3.2,0
		c0.6,0,1,0.3,1,0.9c0,0.2,0.1,0.5,0.1,0.7c0.4,2.1,1.7,3.6,3.8,4.1c3.6,0.9,7.3,0.9,11,0c0.8-0.2,1.6-0.7,2.3-1.2
		c1.8-1.7,1.3-4.5-1.1-5.3c-2-0.6-4-0.9-6.1-1.3c-2.4-0.4-4.8-0.7-7.2-1.1c-1-0.2-2-0.6-2.9-1c-3-1.4-4.3-3.8-4.3-7
		c0.1-4,2.3-6.5,5.9-7.8c5.1-1.8,10.2-1.7,15.3,0.2c3.9,1.4,5.6,4.5,6,8.5c0.1,0.6-0.3,1-0.9,1c-1.2,0-2.3,0-3.5,0
		c-0.5,0-0.8-0.2-0.9-0.7c0,0,0-0.1,0-0.1c-0.6-2.9-2.5-4.4-5.3-4.8c-2.5-0.3-5-0.4-7.5,0.2c-0.6,0.2-1.3,0.4-1.8,0.8
		c-1.2,0.7-1.7,2.3-1.3,3.7c0.2,0.7,0.7,1.1,1.4,1.3c1.5,0.4,3.1,0.8,4.7,1.1c2.8,0.5,5.7,0.9,8.5,1.4c1,0.2,2,0.5,3,0.9
		c3.6,1.4,5.1,3.9,4.9,7.7c-0.2,3.6-2.1,6-5.2,7.5C50.1,51.5,47,51.8,43.9,51.8z"/>
</g>
</svg>
